<?xml version="1.0" encoding="utf-8"?>
<!-- Generator: Adobe Illustrator 22.0.1, SVG Export Plug-In . SVG Version: 6.00 Build 0)  -->
<svg version="1.1" id="Layer_1" xmlns="http://www.w3.org/2000/svg" xmlns:xlink="http://www.w3.org/1999/xlink" x="0px" y="0px"
	 viewBox="0 0 358.1 335.5" style="enable-background:new 0 0 358.1 335.5;" xml:space="preserve">
<style type="text/css">
	.st0{fill:#900C3F;}
	.st1{fill:#720936;}
	.st2{fill:#E6E6E6;}
	.st3{fill:#F2F2F2;}
</style>
<circle class="st0" cx="179.1" cy="171.6" r="142"/>
<g>
	<circle class="st1" cx="164.6" cy="180.1" r="82.5"/>
</g>
<g>
	<circle class="st2" cx="149.6" cy="170.1" r="82.5"/>
</g>
<g>
	<circle class="st3" cx="149.6" cy="170.1" r="54.5"/>
</g>
<g>
	<path class="st1" d="M273.7,259.6h-6.4c-1.8,0-3.3-1.5-3.3-3.3v-99.5c0-1.8,1.5-3.3,3.3-3.3h6.4c1.8,0,3.3,1.5,3.3,3.3v99.5
		C277,258.1,275.5,259.6,273.7,259.6z"/>
	<path class="st1" d="M282.6,109.7l-2,26.7h-5.2c0,0-1.7-28.8-2.6-28.8h-2.7c-0.4,0-2.6,28.8-2.6,28.8h-5.2l-2-27.4
		c-5.4,2.5-7.2,8-7.2,14.3V143c0,8.6,7.1,15.7,15.7,15.7h3.9c8.6,0,15.7-7.1,15.7-15.7v-19.7C288.5,117.5,287.3,112.5,282.6,109.7z"
		/>
</g>
<g>
	<path class="st3" d="M267.7,252.6h-6.4c-1.8,0-3.3-1.5-3.3-3.3v-99.5c0-1.8,1.5-3.3,3.3-3.3h6.4c1.8,0,3.3,1.5,3.3,3.3v99.5
		C271,251.1,269.5,252.6,267.7,252.6z"/>
	<path class="st3" d="M276.6,102.7l-2,26.7h-5.2c0,0-1.7-28.8-2.6-28.8h-2.7c-0.4,0-2.6,28.8-2.6,28.8h-5.2l-2-27.4
		c-5.4,2.5-7.2,8-7.2,14.3V136c0,8.6,7.1,15.7,15.7,15.7h3.9c8.6,0,15.7-7.1,15.7-15.7v-19.7C282.5,110.5,281.3,105.5,276.6,102.7z"
		/>
</g>
</svg>
